REM DIRINDEX 1\5,1\2\6,1\2\7,1\3\8,1\3\9,1\4\10,1\4\11,1\4\12
REM DIRNAME folder01,folder02,folder03,folder04,folder05,folder06,folder07,folder08,folder09,folder10,folder11,folder12
TITLE ""
FILE "EJE_DB3000_5th_2A_46.mp3" MP3
  TRACK 01 AUDIO
    TITLE "0:"
    INDEX 01 00:00:00
  TRACK 02 AUDIO
    TITLE "10:cjc026_08115"
    INDEX 01 00:00:05
  TRACK 03 AUDIO
    TITLE "0:"
    INDEX 01 00:01:13
  TRACK 04 AUDIO
    TITLE "11:cjc026_08116"
    INDEX 01 00:01:40
  TRACK 05 AUDIO
    TITLE "0:"
    INDEX 01 00:02:57
  TRACK 06 AUDIO
    TITLE "12:cjc026_08117"
    INDEX 01 00:03:08
  TRACK 07 AUDIO
    TITLE "0:"
    INDEX 01 00:04:15
  TRACK 08 AUDIO
    TITLE "10:cjc026_08118"
    INDEX 01 00:04:42
  TRACK 09 AUDIO
    TITLE "0:"
    INDEX 01 00:05:32
  TRACK 10 AUDIO
    TITLE "11:cjc026_08119"
    INDEX 01 00:05:57
  TRACK 11 AUDIO
    TITLE "0:"
    INDEX 01 00:06:55
  TRACK 12 AUDIO
    TITLE "12:cjc026_08120"
    INDEX 01 00:07:05
  TRACK 13 AUDIO
    TITLE "0:"
    INDEX 01 00:07:70
  TRACK 14 AUDIO
    TITLE "10:cjc026_08121"
    INDEX 01 00:08:21
  TRACK 15 AUDIO
    TITLE "0:"
    INDEX 01 00:09:40
  TRACK 16 AUDIO
    TITLE "11:cjc026_08122"
    INDEX 01 00:09:67
  TRACK 17 AUDIO
    TITLE "0:"
    INDEX 01 00:10:63
  TRACK 18 AUDIO
    TITLE "12:cjc026_08123"
    INDEX 01 00:11:11
  TRACK 19 AUDIO
    TITLE "0:"
    INDEX 01 00:12:32
  TRACK 20 AUDIO
    TITLE "10:cjc026_08124"
    INDEX 01 00:12:60
  TRACK 21 AUDIO
    TITLE "0:"
    INDEX 01 00:14:00
  TRACK 22 AUDIO
    TITLE "11:cjc026_08125"
    INDEX 01 00:14:29
  TRACK 23 AUDIO
    TITLE "0:"
    INDEX 01 00:15:38
  TRACK 24 AUDIO
    TITLE "12:cjc026_08126"
    INDEX 01 00:15:66
  TRACK 25 AUDIO
    TITLE "0:"
    INDEX 01 00:17:08
  TRACK 26 AUDIO
    TITLE "10:cjc026_08127"
    INDEX 01 00:17:35
  TRACK 27 AUDIO
    TITLE "0:"
    INDEX 01 00:18:25
  TRACK 28 AUDIO
    TITLE "11:cjc026_08128"
    INDEX 01 00:18:52
  TRACK 29 AUDIO
    TITLE "0:"
    INDEX 01 00:19:52
  TRACK 30 AUDIO
    TITLE "12:cjc026_08129"
    INDEX 01 00:20:02
  TRACK 31 AUDIO
    TITLE "0:"
    INDEX 01 00:20:67
  TRACK 32 AUDIO
    TITLE "10:cjc026_08130"
    INDEX 01 00:21:19
  TRACK 33 AUDIO
    TITLE "0:"
    INDEX 01 00:22:19
  TRACK 34 AUDIO
    TITLE "11:cjc026_08131"
    INDEX 01 00:22:44
  TRACK 35 AUDIO
    TITLE "0:"
    INDEX 01 00:23:50
  TRACK 36 AUDIO
    TITLE "12:cjc026_08132"
    INDEX 01 00:24:00
  TRACK 37 AUDIO
    TITLE "0:"
    INDEX 01 00:24:72
  TRACK 38 AUDIO
    TITLE "10:cjc026_08133"
    INDEX 01 00:25:25
  TRACK 39 AUDIO
    TITLE "0:"
    INDEX 01 00:26:28
  TRACK 40 AUDIO
    TITLE "11:cjc026_08134"
    INDEX 01 00:26:56
  TRACK 41 AUDIO
    TITLE "0:"
    INDEX 01 00:27:67
  TRACK 42 AUDIO
    TITLE "12:cjc026_08135"
    INDEX 01 00:28:17
  TRACK 43 AUDIO
    TITLE "0:"
    INDEX 01 00:29:21
  TRACK 44 AUDIO
    TITLE "10:cjc026_08136"
    INDEX 01 00:29:50
  TRACK 45 AUDIO
    TITLE "0:"
    INDEX 01 00:30:40
  TRACK 46 AUDIO
    TITLE "11:cjc026_08137"
    INDEX 01 00:30:67
  TRACK 47 AUDIO
    TITLE "0:"
    INDEX 01 00:32:47
  TRACK 48 AUDIO
    TITLE "12:cjc026_08138"
    INDEX 01 00:32:74
  TRACK 49 AUDIO
    TITLE "0:"
    INDEX 01 00:33:62
  TRACK 50 AUDIO
    TITLE "10:cjc026_08139"
    INDEX 01 00:34:16
  TRACK 51 AUDIO
    TITLE "0:"
    INDEX 01 00:35:04
  TRACK 52 AUDIO
    TITLE "11:cjc026_08140"
    INDEX 01 00:35:31
  TRACK 53 AUDIO
    TITLE "0:"
    INDEX 01 00:37:05
  TRACK 54 AUDIO
    TITLE "12:cjc026_08141"
    INDEX 01 00:37:30
  TRACK 55 AUDIO
    TITLE "0:"
    INDEX 01 00:38:18
  TRACK 56 AUDIO
    TITLE "10:cjc026_08142"
    INDEX 01 00:38:45
  TRACK 57 AUDIO
    TITLE "0:"
    INDEX 01 00:39:45
  TRACK 58 AUDIO
    TITLE "11:cjc026_08143"
    INDEX 01 00:39:70
  TRACK 59 AUDIO
    TITLE "0:"
    INDEX 01 00:41:24
  TRACK 60 AUDIO
    TITLE "12:cjc026_08144"
    INDEX 01 00:41:49
  TRACK 61 AUDIO
    TITLE "0:"
    INDEX 01 00:42:47
  TRACK 62 AUDIO
    TITLE "10:cjc026_08145"
    INDEX 01 00:42:74
  TRACK 63 AUDIO
    TITLE "0:"
    INDEX 01 00:43:60
  TRACK 64 AUDIO
    TITLE "11:cjc026_08146"
    INDEX 01 00:44:11
  TRACK 65 AUDIO
    TITLE "0:"
    INDEX 01 00:45:04
  TRACK 66 AUDIO
    TITLE "12:cjc026_08147"
    INDEX 01 00:45:30
  TRACK 67 AUDIO
    TITLE "0:"
    INDEX 01 00:46:15
